<svg width="1009" height="405" viewBox="0 0 1009 405" fill="none" xmlns="http://www.w3.org/2000/svg">
<path fill-rule="evenodd" clip-rule="evenodd" d="M3.38407 0.720002C3.46074 0.454715 3.30784 0.177508 3.04255 0.100841C2.77726 0.024174 2.50005 0.17708 2.42339 0.442367C0.424129 7.3603 -0.0778203 18.1577 4.92296 28.0985C9.93784 38.0673 20.4447 47.0923 40.2993 50.5041C206.713 80.1081 318.992 109.355 393.919 135.535C467.841 161.365 505.356 184.195 522.64 201.399C519.62 201.958 516.646 203.81 514.189 206.338C511.45 209.154 509.305 212.857 508.419 216.691C507.533 220.529 507.903 224.532 510.254 227.884C512.603 231.234 516.873 233.852 523.615 235.044C528.981 235.993 534.628 233.145 536.097 227.161C537.531 221.318 534.925 212.694 524.612 201.978C593.542 178.634 699.62 160.725 794.827 182.527C842.595 193.465 887.611 214.396 923.832 249.635C960.003 284.824 987.434 334.309 1000.07 402.436L1000 402.556L991.659 390.59C991.501 390.364 991.184 390.3 990.951 390.448C990.718 390.597 990.657 390.9 990.815 391.127L999.601 403.726C999.647 403.826 999.727 403.912 999.837 403.964C999.927 404.006 1000.02 404.02 1000.12 404.009C1000.2 404.002 1000.28 403.977 1000.35 403.93C1000.46 403.863 1000.53 403.764 1000.56 403.655L1000.88 403.033C1001.02 402.939 1001.11 402.775 1001.11 402.598L1008.3 388.706C1008.43 388.46 1008.33 388.166 1008.08 388.048C1007.83 387.93 1007.52 388.034 1007.4 388.279L1000.81 400.993C988.045 333.337 960.642 284.051 924.53 248.918C888.148 213.524 842.955 192.522 795.05 181.552C699.394 159.648 592.863 177.729 523.838 201.185C506.61 183.757 468.908 160.679 394.249 134.591C319.254 108.387 206.917 79.1287 40.473 49.5193L40.4701 49.5188C20.8712 46.1513 10.6649 37.2874 5.8163 27.6491C0.953482 17.9826 1.43789 7.45427 3.38407 0.720002ZM514.906 207.035C517.469 204.399 520.537 202.612 523.512 202.28C534.063 213.097 536.453 221.517 535.125 226.923C533.8 232.321 528.714 234.93 523.789 234.059C517.215 232.897 513.224 230.377 511.073 227.31C508.923 224.244 508.554 220.55 509.394 216.916C510.234 213.278 512.281 209.734 514.906 207.035Z" fill="white"/>
</svg>
