<svg width="13" height="64" viewBox="0 0 13 64" fill="none" xmlns="http://www.w3.org/2000/svg">
<path fill-rule="evenodd" clip-rule="evenodd" d="M7.00015 0.5C7.00015 0.223858 6.77629 0 6.50015 0C6.22401 0 6.00015 0.223858 6.00015 0.5L6.00015 60.5499L1.44716 52.3732C1.31282 52.1319 1.00648 52.0418 0.762922 52.172C0.519367 52.3021 0.430831 52.6032 0.56517 52.8444L6.07868 62.7462C6.1794 62.9271 6.37679 63.023 6.57193 63.0048C6.76706 63.023 6.96445 62.9271 7.06517 62.7462L12.5787 52.8444C12.713 52.6032 12.6245 52.3021 12.3809 52.172C12.1374 52.0418 11.831 52.1319 11.6967 52.3732L7.00015 60.8078L7.00015 0.5Z" fill="white"/>
</svg>
