<svg width="13" height="180" viewBox="0 0 13 180" fill="none" xmlns="http://www.w3.org/2000/svg">
<path fill-rule="evenodd" clip-rule="evenodd" d="M5.49919 179.25C5.49919 179.664 5.83498 180 6.24919 180C6.6634 180 6.99919 179.664 6.99919 179.25L6.9992 4.61107L10.9219 13.0743C11.0961 13.4501 11.5199 13.5734 11.8685 13.3497C12.217 13.1259 12.3584 12.6398 12.1842 12.2641L7.02088 1.12411C7.01452 0.840973 6.87245 0.559753 6.63077 0.404617C6.5083 0.326019 6.37655 0.290237 6.24961 0.293198C6.12266 0.290237 5.99091 0.326019 5.86845 0.404617C5.62677 0.559753 5.48469 0.840973 5.47834 1.12413L0.315 12.2641C0.140814 12.6398 0.282186 13.1259 0.630765 13.3497C0.979344 13.5734 1.40313 13.4501 1.57732 13.0743L5.4992 4.61285L5.49919 179.25Z" fill="white"/>
</svg>
