<svg width="325" height="397" viewBox="0 0 325 397" fill="none" xmlns="http://www.w3.org/2000/svg">
<path fill-rule="evenodd" clip-rule="evenodd" d="M324.185 1.46471C324.441 1.36262 324.567 1.07186 324.465 0.815285C324.362 0.558707 324.072 0.433469 323.815 0.535559C250.594 29.6694 177.841 91.0522 120.117 163.855C62.8343 236.101 20.3073 319.648 6.8146 394.19L1.46437 380.815C1.36181 380.558 1.07083 380.433 0.814435 380.536C0.558044 380.639 0.433336 380.93 0.535892 381.186L6.5312 396.174C6.53596 396.187 6.54123 396.2 6.54699 396.212C6.56136 396.243 6.57897 396.272 6.59978 396.3C6.60146 396.302 6.60324 396.304 6.60495 396.307C6.63926 396.351 6.68101 396.389 6.72874 396.42C6.73983 396.427 6.75124 396.434 6.76296 396.441C6.8156 396.469 6.87186 396.487 6.929 396.495C6.99784 396.505 7.06953 396.501 7.13967 396.48C7.19668 396.464 7.25107 396.437 7.29987 396.401C7.33768 396.372 7.37077 396.339 7.39859 396.302L18.3933 382.309C18.5639 382.092 18.5262 381.778 18.309 381.607C18.0919 381.436 17.7776 381.474 17.607 381.691L7.84427 394.117C21.3495 319.846 63.7511 236.554 120.901 164.476C178.556 91.7604 251.177 30.5138 324.185 1.46471Z" fill="white"/>
</svg>
