<svg width="22" height="22" viewBox="0 0 22 22" fill="none" xmlns="http://www.w3.org/2000/svg">
<path d="M5.87917 15.8928L5.65611 15.6644L5.35507 15.7707C4.913 15.9267 4.50392 16 4.125 16C3.1117 16 2.26584 15.6481 1.55825 14.9342C0.848245 14.2178 0.5 13.3736 0.5 12.375C0.5 11.5783 0.731402 10.8781 1.19541 10.2574C1.66582 9.62802 2.26369 9.19106 2.99893 8.93753L3.28022 8.84054L3.29531 8.75H18.6917C18.7296 9.25562 18.75 10.0015 18.75 11C18.75 11.5655 18.6182 12.1717 18.3393 12.8226C18.0568 13.4815 17.687 14.0937 17.2286 14.66C16.7542 15.246 16.2715 15.7701 15.7809 16.233C15.3297 16.6588 14.8715 17.0392 14.4065 17.375H7.59333C6.99326 16.9422 6.42184 16.4484 5.87917 15.8928ZM3.27124 10.0059L3.29903 9.11659L2.52498 9.55522C2.01991 9.84143 1.6163 10.2363 1.32095 10.7342C1.02352 11.2355 0.875 11.7858 0.875 12.375C0.875 13.2668 1.1963 14.0421 1.82711 14.6729C2.45792 15.3037 3.23318 15.625 4.125 15.625C4.23072 15.625 4.38643 15.6026 4.55095 15.5752L5.38689 15.4359L4.86069 14.7716C3.75445 13.3749 3.25 12.1213 3.25 11C3.25 10.7935 3.25694 10.4634 3.27124 10.0059ZM12.087 5.44201L12.1345 5.61064L12.2768 5.7128C12.5425 5.9036 12.7526 6.12357 12.9104 6.375H12.7035C12.6902 6.31992 12.6759 6.26678 12.6606 6.2157L12.6102 6.04771L12.4659 5.94801C11.8111 5.49566 11.5 4.90355 11.5 4.125C11.5 3.49859 11.7158 2.97762 12.1592 2.53422C12.2456 2.44787 12.3348 2.37016 12.4273 2.30099C12.0586 2.83749 11.875 3.4505 11.875 4.125C11.875 4.51555 11.9507 4.95737 12.087 5.44201ZM7.96203 4.06701L8.00991 4.23723L8.15415 4.33951C8.81308 4.80675 9.125 5.40839 9.125 6.1875C9.125 6.24376 9.121 6.30615 9.11229 6.375H8.74362C8.74784 6.31129 8.75 6.24877 8.75 6.1875C8.75 5.78421 8.67488 5.3358 8.53797 4.849L8.48916 4.67548L8.34086 4.57301C7.68613 4.12066 7.375 3.52855 7.375 2.75C7.375 2.12359 7.59081 1.60262 8.03422 1.15922C8.12056 1.07287 8.20985 0.995158 8.30228 0.925987C7.93363 1.46249 7.75 2.0755 7.75 2.75C7.75 3.14055 7.82573 3.58237 7.96203 4.06701ZM5.5 21.5C4.77783 21.5 4.00351 21.3589 3.17402 21.0665C2.33648 20.7713 1.66749 20.4215 1.15421 20.0251C1.02654 19.9266 0.920118 19.8348 0.832593 19.75H21.1674C21.0799 19.8348 20.9735 19.9266 20.8458 20.0251C20.3325 20.4215 19.6635 20.7713 18.826 21.0665C17.9965 21.3589 17.2222 21.5 16.5 21.5H5.5Z" stroke="white"/>
</svg>
