<svg width="142" height="36" viewBox="0 0 142 36" fill="none" xmlns="http://www.w3.org/2000/svg">
<path d="M17.7021 15.1996L17.6938 10.8711H25.1638L17.7021 15.1996Z" stroke="white"/>
<path d="M19.2377 17.9589L27.2317 13.3217L23.2106 20.2634L19.2377 17.9589Z" stroke="white"/>
<path d="M6.99527 10.8711H14.5357L14.5441 15.2089L6.99527 10.8711Z" stroke="white"/>
<path d="M12.9925 17.9587L9.02158 20.2406L5.00328 13.3677L12.9925 17.9587Z" stroke="white"/>
<path d="M17.7129 20.7255L21.6276 22.9963L17.7302 29.7244L17.7129 20.7255Z" stroke="white"/>
<path d="M14.5721 29.7346L10.6156 22.9675L14.5548 20.7039L14.5721 29.7346Z" stroke="white"/>
<path d="M2.65558 7.71293L14.5165 0.865066L14.5296 7.71293H2.65558Z" stroke="white"/>
<path d="M0.5 25.1379V11.922L6.28367 21.8144L0.5 25.1379Z" stroke="white"/>
<path d="M30.0679 27.8928L18.6075 34.5095L24.3589 24.581L30.0679 27.8928Z" stroke="white"/>
<path d="M17.6745 0.869916L29.5262 7.71246H17.6877L17.6745 0.869916Z" stroke="white"/>
<path d="M31.6817 11.9388V25.1775L25.9417 21.8477L31.6817 11.9388Z" stroke="white"/>
<path d="M13.7728 34.6233L2.07917 27.8719L7.87755 24.5401L13.7728 34.6233Z" stroke="white"/>
<path d="M52.9032 20.6934C52.1232 21.9652 50.7836 22.6774 49.2236 22.6774C46.6801 22.6774 44.7979 20.7612 44.7979 18.099C44.7979 15.6064 46.6801 13.6224 49.2236 13.6224C50.6989 13.6224 51.9028 14.1481 52.7506 15.2333C52.8354 15.352 52.9541 15.369 53.0559 15.2672L53.9376 14.4872C54.0394 14.3855 54.0394 14.3007 53.9546 14.182C52.8185 12.8085 51.1567 12.0624 49.2236 12.0624C45.8322 12.0624 43.1531 14.7755 43.1531 18.099C43.1531 21.6091 45.8322 24.2374 49.2236 24.2374C51.2584 24.2374 53.0389 23.2878 54.1581 21.643C54.2428 21.5413 54.2089 21.4226 54.1072 21.3378L53.2085 20.6425C53.0898 20.5408 52.988 20.5578 52.9032 20.6934ZM60.8157 24.2374C63.4949 24.2374 65.2923 22.9656 65.2923 20.7104C65.2923 18.2686 63.5288 17.4038 61.0701 17.1155C58.764 16.8442 57.8992 16.3864 57.8992 15.2333C57.8992 14.1311 59.0013 13.5546 60.6292 13.5546C61.8671 13.5546 62.9014 13.9955 63.7154 14.9281C63.8001 15.0298 63.9188 15.0468 64.0206 14.945L64.8684 14.182C64.9702 14.0972 64.9702 13.9785 64.8854 13.8598C63.7323 12.5711 62.1892 12.0793 60.6631 12.0793C58.0179 12.0793 56.3561 13.3681 56.3561 15.2672C56.3561 17.4207 57.9839 18.3364 60.4766 18.6756C62.7997 18.9638 63.7323 19.4217 63.7323 20.7782C63.7323 22.3213 62.3249 22.7622 60.8157 22.7622C59.3405 22.7622 57.95 22.3552 57.1531 21.0326C57.0683 20.8969 56.9665 20.8799 56.8478 20.9817L55.9661 21.7617C55.8643 21.8634 55.8474 21.9482 55.9322 22.0669C57.0513 23.6269 58.8487 24.2374 60.8157 24.2374ZM72.2623 24.2374C74.9414 24.2374 76.7389 22.9656 76.7389 20.7104C76.7389 18.2686 74.9754 17.4038 72.5166 17.1155C70.2105 16.8442 69.3457 16.3864 69.3457 15.2333C69.3457 14.1311 70.4479 13.5546 72.0757 13.5546C73.3136 13.5546 74.348 13.9955 75.1619 14.9281C75.2467 15.0298 75.3654 15.0468 75.4671 14.945L76.3149 14.182C76.4167 14.0972 76.4167 13.9785 76.3319 13.8598C75.1788 12.5711 73.6358 12.0793 72.1096 12.0793C69.4644 12.0793 67.8026 13.3681 67.8026 15.2672C67.8026 17.4207 69.4305 18.3364 71.9231 18.6756C74.2462 18.9638 75.1788 19.4217 75.1788 20.7782C75.1788 22.3213 73.7714 22.7622 72.2623 22.7622C70.787 22.7622 69.3966 22.3552 68.5996 21.0326C68.5148 20.8969 68.4131 20.8799 68.2944 20.9817L67.4126 21.7617C67.3109 21.8634 67.2939 21.9482 67.3787 22.0669C68.4978 23.6269 70.2953 24.2374 72.2623 24.2374ZM83.1589 12.5202V23.7796C83.1589 23.9152 83.2437 24 83.3793 24H87.5337C91.1625 24 93.5873 21.5582 93.5873 18.099C93.5873 14.7246 91.1625 12.2998 87.5337 12.2998H83.3793C83.2437 12.2998 83.1589 12.3846 83.1589 12.5202ZM84.7528 22.5078V13.792H87.4829C90.196 13.792 91.9086 15.5216 91.9086 18.099C91.9086 20.7612 90.196 22.5078 87.4829 22.5078H84.7528ZM97.1493 13.9446C97.675 13.9446 98.0989 13.5207 98.0989 12.9781C98.0989 12.4524 97.675 12.0285 97.1493 12.0285C96.6067 12.0285 96.1828 12.4524 96.1828 12.9781C96.1828 13.5207 96.6067 13.9446 97.1493 13.9446ZM97.8954 23.7796V16.0642C97.8954 15.9285 97.8107 15.8438 97.675 15.8438H96.5898C96.4541 15.8438 96.3693 15.9285 96.3693 16.0642V23.7796C96.3693 23.9152 96.4541 24 96.5898 24H97.675C97.8107 24 97.8954 23.9152 97.8954 23.7796ZM103.333 24.2374C105.096 24.2374 106.622 23.3726 106.622 21.626C106.622 19.5912 104.842 19.3369 103.451 19.1164C102.146 18.9129 101.603 18.5738 101.603 17.9125C101.603 17.1494 102.366 16.912 103.18 16.912C104.164 16.912 104.876 17.2681 105.435 17.8955C105.537 18.0142 105.639 18.0142 105.74 17.8955L106.368 17.1664C106.453 17.0647 106.453 16.9629 106.368 16.8612C105.571 16.0472 104.486 15.6064 103.163 15.6064C101.213 15.6064 100.196 16.7425 100.196 18.0312C100.196 19.7269 101.705 20.2865 103.146 20.5069C104.401 20.6934 105.232 20.846 105.232 21.7108C105.232 22.5417 104.401 22.9317 103.35 22.9317C102.332 22.9317 101.484 22.5417 100.942 21.8295C100.84 21.6939 100.738 21.6939 100.636 21.8126L100.009 22.6265C99.9243 22.7452 99.9413 22.8469 100.026 22.9487C100.857 23.7796 101.84 24.2374 103.333 24.2374ZM113.199 15.6064C112.029 15.6064 111.063 16.149 110.435 17.0307V16.0642C110.435 15.9285 110.35 15.8438 110.215 15.8438H109.13C108.994 15.8438 108.909 15.9285 108.909 16.0642V26.6622C108.909 26.7979 108.994 26.8827 109.13 26.8827H110.215C110.35 26.8827 110.435 26.7979 110.435 26.6622V22.83C111.063 23.7117 112.029 24.2374 113.199 24.2374C115.421 24.2374 117.235 22.3721 117.235 19.9134C117.235 17.4886 115.421 15.6064 113.199 15.6064ZM113.081 22.83C111.554 22.83 110.452 21.6091 110.452 19.9473C110.452 18.2855 111.554 16.9968 113.081 16.9968C114.607 16.9968 115.709 18.2686 115.709 19.9134C115.709 21.5921 114.607 22.83 113.081 22.83ZM119.634 24H120.719C120.855 24 120.94 23.9152 120.94 23.7796V11.8419C120.94 11.7063 120.855 11.6215 120.719 11.6215H119.634C119.498 11.6215 119.413 11.7063 119.413 11.8419V23.7796C119.413 23.9152 119.498 24 119.634 24ZM129.908 17.0477C129.281 16.149 128.314 15.6064 127.127 15.6064C124.923 15.6064 123.091 17.4886 123.091 19.9134C123.091 22.3721 124.923 24.2374 127.127 24.2374C128.314 24.2374 129.281 23.6948 129.908 22.813V23.7796C129.908 23.9152 129.993 24 130.129 24H131.214C131.349 24 131.434 23.9152 131.434 23.7796V16.0642C131.434 15.9285 131.349 15.8438 131.214 15.8438H130.129C129.993 15.8438 129.908 15.9285 129.908 16.0642V17.0477ZM127.263 22.83C125.737 22.83 124.635 21.5921 124.635 19.9134C124.635 18.2686 125.737 16.9968 127.263 16.9968C128.789 16.9968 129.891 18.2686 129.891 19.9134C129.891 21.5921 128.789 22.83 127.263 22.83ZM137.244 22.1347L134.785 16.0133C134.735 15.8946 134.65 15.8438 134.531 15.8438H133.361C133.208 15.8438 133.124 15.9455 133.191 16.0981L136.498 24.017L135.447 26.6283C135.396 26.7809 135.464 26.8827 135.616 26.8827H136.651C136.769 26.8827 136.854 26.8318 136.905 26.7131L141.28 16.0981C141.348 15.9455 141.263 15.8438 141.11 15.8438H139.957C139.839 15.8438 139.754 15.8946 139.703 16.0133L137.244 22.1347Z" fill="white"/>
</svg>
